# Blender 4.1.0
# www.blender.org
mtllib track1.mtl
o Cube
v 3.000000 1.000000 -2.000000
v 3.000000 -1.000000 -2.000000
v 3.000000 1.000000 2.000000
v 3.000000 -1.000000 2.000000
v -3.000000 1.000000 -2.000000
v -3.000000 -1.000000 -2.000000
v -3.000000 1.000000 2.000000
v -3.000000 -1.000000 2.000000
v -2.807940 1.000000 1.823422
v -2.807943 1.000000 1.388641
v -2.296369 1.000000 1.371872
v -2.006227 1.000000 1.073460
v -2.029469 1.000000 0.642166
v -2.219825 1.000000 0.335546
v -2.486457 1.000000 -0.018024
v -2.666694 1.000000 -0.327095
v -2.677681 1.000000 -0.681473
v -2.614716 1.000000 -1.023228
v -2.563606 1.000000 -1.319011
v -2.431798 1.000000 -1.670525
v -2.094434 1.000000 -1.709300
v -1.734970 1.000000 -1.747645
v -1.247246 1.000000 -1.726432
v -0.846016 1.000000 -1.583367
v -0.473745 1.000000 -1.431343
v -0.393269 1.000000 -1.094845
v -0.429075 1.000000 -0.681657
v -0.511347 1.000000 -0.503601
v -0.697695 1.000000 -0.224923
v -0.863312 1.000000 0.122105
v -0.783014 1.000000 0.391493
v -0.606596 1.000000 0.704812
v -0.316204 1.000000 0.949397
v -0.189908 1.000000 0.870703
v 0.029493 1.000000 0.635789
v 0.171625 1.000000 0.401846
v 0.181038 1.000000 0.124186
v 0.124275 1.000000 -0.087145
v -0.047104 1.000000 -0.321636
v -0.105700 1.000000 -0.589439
v -0.058995 1.000000 -0.822944
v 0.069961 1.000000 -1.132496
v 0.266104 1.000000 -1.473873
v 0.701352 1.000000 -1.720072
v 1.239824 1.000000 -1.717223
v 1.713599 1.000000 -1.665565
v 1.829005 1.000000 -1.283068
v 1.711928 1.000000 -0.799757
v 1.454684 1.000000 -0.475872
v 1.321422 1.000000 -0.087531
v 1.210513 1.000000 0.409523
v 1.162157 1.000000 0.815671
v 1.380415 1.000000 1.127194
v 1.691144 1.000000 1.267775
v 1.975921 1.000000 1.187820
v 2.145521 1.000000 0.996539
v 2.487253 1.000000 0.391771
v 2.307328 1.000000 -0.172869
v 2.551113 1.000000 -0.854164
v 2.212211 1.000000 -1.561041
v 2.493015 1.000000 -1.756275
v 2.806926 1.000000 -0.932195
v 2.586356 1.000000 -0.133539
v 2.735570 1.000000 0.249059
v 2.478339 1.000000 1.165795
v 2.142721 1.000000 1.548420
v 1.704965 1.000000 1.571734
v 1.418637 1.000000 1.470266
v 1.075231 1.000000 1.207785
v 0.862922 1.000000 1.002812
v 0.886511 1.000000 0.556415
v 0.983117 1.000000 0.133472
v 1.173637 1.000000 -0.455915
v 1.488404 1.000000 -0.864098
v 1.558303 1.000000 -1.235972
v 1.488620 1.000000 -1.435742
v 0.742009 1.000000 -1.454247
v 0.455138 1.000000 -1.244644
v 0.357002 1.000000 -1.030116
v 0.211107 1.000000 -0.543595
v 0.380641 1.000000 -0.185266
v 0.418233 1.000000 0.295025
v 0.305100 1.000000 0.706249
v -0.044005 1.000000 1.051469
v -0.248838 1.000000 1.140051
v -0.452350 1.000000 1.150161
v -0.691738 1.000000 0.901418
v -0.932346 1.000000 0.579833
v -1.073486 1.000000 0.319475
v -1.021040 1.000000 -0.059997
v -0.753204 1.000000 -0.594155
v -0.644145 1.000000 -1.040779
v -0.726572 1.000000 -1.199624
v -1.226785 1.000000 -1.392425
v -2.138863 1.000000 -1.373709
v -2.241116 1.000000 -1.255087
v -2.366021 1.000000 -0.541271
v -1.758734 1.000000 0.503749
v -1.666661 1.000000 1.006063
v -1.719156 1.000000 1.350092
v -1.985090 1.000000 1.722812
v -2.807940 0.777630 1.823422
v -2.807943 0.777630 1.388641
v -2.296369 0.777630 1.371872
v -2.006227 0.777630 1.073460
v -2.029469 0.777630 0.642166
v -2.219825 0.777630 0.335546
v -2.486457 0.777630 -0.018024
v -2.666694 0.777630 -0.327095
v -2.677681 0.777630 -0.681473
v -2.614716 0.777630 -1.023228
v -2.563606 0.777630 -1.319011
v -2.431798 0.777630 -1.670525
v -2.094434 0.777630 -1.709300
v -1.734970 0.777630 -1.747645
v -1.247246 0.777630 -1.726432
v -0.846016 0.777630 -1.583367
v -0.473745 0.777630 -1.431343
v -0.393269 0.777630 -1.094845
v -0.429075 0.777630 -0.681657
v -0.511347 0.777630 -0.503601
v -0.697695 0.777630 -0.224923
v -0.863312 0.777630 0.122105
v -0.783014 0.777630 0.391493
v -0.606596 0.777630 0.704812
v -0.316204 0.777630 0.949397
v -0.189908 0.777630 0.870703
v 0.029493 0.777630 0.635789
v 0.171625 0.777630 0.401846
v 0.181038 0.777630 0.124186
v 0.124275 0.777630 -0.087145
v -0.047104 0.777630 -0.321636
v -0.105700 0.777630 -0.589439
v -0.058995 0.777630 -0.822944
v 0.069961 0.777630 -1.132496
v 0.266104 0.777630 -1.473873
v 0.701352 0.777630 -1.720072
v 1.239824 0.777630 -1.717223
v 1.713599 0.777630 -1.665565
v 1.829005 0.777630 -1.283068
v 1.711928 0.777630 -0.799757
v 1.454684 0.777630 -0.475872
v 1.321422 0.777630 -0.087531
v 1.210513 0.777630 0.409523
v 1.162157 0.777630 0.815671
v 1.380415 0.777630 1.127194
v 1.691144 0.777630 1.267775
v 1.975921 0.777630 1.187820
v 2.145521 0.777630 0.996539
v 2.487253 0.777630 0.391771
v 2.307328 0.777630 -0.172869
v 2.551113 0.777630 -0.854164
v 2.212211 0.777630 -1.561041
v 2.493015 0.777630 -1.756275
v 2.806926 0.777630 -0.932195
v 2.586356 0.777630 -0.133539
v 2.735570 0.777630 0.249059
v 2.478339 0.777630 1.165795
v 2.142721 0.777630 1.548420
v 1.704965 0.777630 1.571734
v 1.418637 0.777630 1.470266
v 1.075231 0.777630 1.207785
v 0.862922 0.777630 1.002812
v 0.886511 0.777630 0.556415
v 0.983117 0.777630 0.133472
v 1.173637 0.777630 -0.455915
v 1.488404 0.777630 -0.864098
v 1.558303 0.777630 -1.235972
v 1.488620 0.777630 -1.435742
v 0.742009 0.777630 -1.454247
v 0.455138 0.777630 -1.244644
v 0.357002 0.777630 -1.030116
v 0.211107 0.777630 -0.543595
v 0.380641 0.777630 -0.185266
v 0.418233 0.777630 0.295025
v 0.305100 0.777630 0.706249
v -0.044005 0.777630 1.051469
v -0.248838 0.777630 1.140051
v -0.452350 0.777630 1.150161
v -0.691738 0.777630 0.901418
v -0.932346 0.777630 0.579833
v -1.073486 0.777630 0.319475
v -1.021040 0.777630 -0.059997
v -0.753204 0.777630 -0.594155
v -0.644145 0.777630 -1.040779
v -0.726572 0.777630 -1.199624
v -1.226785 0.777630 -1.392425
v -2.138863 0.777630 -1.373709
v -2.241116 0.777630 -1.255087
v -2.366021 0.777630 -0.541271
v -1.758734 0.777630 0.503749
v -1.666661 0.777630 1.006063
v -1.719156 0.777630 1.350092
v -1.985090 0.777630 1.722812
vn -0.0000 1.0000 -0.0000
vn -0.0000 -0.0000 1.0000
vn -1.0000 -0.0000 -0.0000
vn -0.0000 -1.0000 -0.0000
vn 1.0000 -0.0000 -0.0000
vn -0.0000 -0.0000 -1.0000
vn -0.9345 -0.0000 0.3560
vn 0.8546 -0.0000 0.5192
vn 0.8791 -0.0000 -0.4766
vn -0.9639 -0.0000 -0.2662
vn 0.9994 -0.0000 0.0339
vn 0.0328 -0.0000 0.9995
vn 0.9906 -0.0000 0.1369
vn -0.9317 -0.0000 0.3633
vn 0.9658 -0.0000 -0.2594
vn 0.7170 -0.0000 0.6971
vn 0.8939 -0.0000 0.4482
vn -0.9628 -0.0000 -0.2702
vn 0.8074 -0.0000 -0.5901
vn 0.9986 -0.0000 -0.0538
vn 0.9715 -0.0000 0.2372
vn -0.7518 -0.0000 -0.6594
vn 0.9769 -0.0000 -0.2137
vn 0.8496 -0.0000 -0.5274
vn 0.8876 -0.0000 -0.4606
vn -0.0532 -0.0000 -0.9986
vn 0.9806 -0.0000 0.1961
vn 0.7984 -0.0000 -0.6021
vn 0.3596 -0.0000 -0.9331
vn 0.3340 -0.0000 -0.9426
vn 0.9231 -0.0000 0.3846
vn 0.8638 -0.0000 -0.5038
vn -0.0205 -0.0000 -0.9998
vn 0.6073 -0.0000 -0.7945
vn 0.8671 -0.0000 0.4982
vn 0.9995 -0.0000 -0.0310
vn -0.7574 -0.0000 -0.6529
vn 0.6946 -0.0000 -0.7194
vn 0.4923 -0.0000 0.8704
vn 0.9834 -0.0000 0.1812
vn -0.9850 -0.0000 -0.1724
vn 0.9986 -0.0000 0.0528
vn -0.0053 -0.0000 1.0000
vn 0.9854 -0.0000 0.1703
vn -0.8646 -0.0000 0.5024
vn 0.9749 -0.0000 0.2227
vn -0.1084 -0.0000 0.9941
vn 0.9363 -0.0000 0.3511
vn -0.9836 -0.0000 0.1803
vn 0.9515 -0.0000 0.3076
vn -0.9574 -0.0000 0.2889
vn 0.1142 -0.0000 0.9935
vn -0.9886 -0.0000 -0.1508
vn 0.7919 -0.0000 0.6107
vn -0.9719 -0.0000 -0.2354
vn 0.1061 -0.0000 0.9944
vn -0.8140 -0.0000 -0.5808
vn 0.9828 -0.0000 0.1847
vn -0.7831 -0.0000 -0.6219
vn -0.0435 -0.0000 0.9991
vn -0.1214 -0.0000 -0.9926
vn 0.9442 -0.0000 -0.3294
vn -0.9459 -0.0000 -0.3246
vn -0.3359 -0.0000 0.9419
vn 0.0248 -0.0000 -0.9997
vn -0.9760 -0.0000 -0.2178
vn -0.3781 -0.0000 0.9258
vn -0.5900 -0.0000 -0.8074
vn -0.9930 -0.0000 -0.1182
vn -0.9726 -0.0000 0.2326
vn -0.9094 -0.0000 -0.4160
vn -0.8190 -0.0000 0.5738
vn -0.9963 -0.0000 -0.0863
vn -0.9579 -0.0000 -0.2872
vn -0.4122 -0.0000 0.9111
vn -0.9078 -0.0000 -0.4194
vn -0.9039 -0.0000 0.4277
vn 0.2703 -0.0000 0.9628
vn -0.8313 -0.0000 -0.5559
vn -0.9970 -0.0000 0.0780
vn 0.7482 -0.0000 0.6634
vn -0.9025 -0.0000 -0.4307
vn -0.9642 -0.0000 -0.2653
vn 0.8706 -0.0000 0.4920
vn -0.9583 -0.0000 0.2857
vn -0.7031 -0.0000 -0.7111
vn 0.9528 -0.0000 -0.3036
vn -0.8714 -0.0000 0.4906
vn -0.3969 -0.0000 -0.9178
vn 0.9415 -0.0000 0.3369
vn -0.6442 -0.0000 0.7649
vn -0.0496 -0.0000 -0.9988
vn 0.9017 -0.0000 -0.4323
vn 0.5288 -0.0000 0.8487
vn 0.7205 -0.0000 -0.6934
vn 0.5709 -0.0000 0.8211
vn 0.7308 -0.0000 0.6826
vn 0.8007 -0.0000 -0.5991
vt 0.625000 0.500000
vt 0.875000 0.500000
vt 0.875000 0.750000
vt 0.866998 0.711790
vt 0.845682 0.710742
vt 0.833593 0.692091
vt 0.834561 0.665135
vt 0.842493 0.645972
vt 0.853602 0.623874
vt 0.861112 0.604557
vt 0.861570 0.582408
vt 0.858946 0.561048
vt 0.856817 0.542562
vt 0.851325 0.520592
vt 0.837268 0.518169
vt 0.822290 0.515772
vt 0.801969 0.517098
vt 0.785251 0.526040
vt 0.769739 0.535541
vt 0.766386 0.556572
vt 0.767878 0.582396
vt 0.771306 0.593525
vt 0.779071 0.610942
vt 0.785971 0.632632
vt 0.782626 0.649468
vt 0.775275 0.669051
vt 0.763175 0.684337
vt 0.757913 0.679419
vt 0.748771 0.664737
vt 0.742849 0.650115
vt 0.742457 0.632762
vt 0.744822 0.619553
vt 0.751963 0.604898
vt 0.754404 0.588160
vt 0.752458 0.573566
vt 0.747085 0.554219
vt 0.738912 0.532883
vt 0.720777 0.517496
vt 0.698341 0.517674
vt 0.678600 0.520902
vt 0.673791 0.544808
vt 0.678670 0.575015
vt 0.689388 0.595258
vt 0.694941 0.619529
vt 0.699562 0.650595
vt 0.701577 0.675979
vt 0.692483 0.695450
vt 0.679536 0.704236
vt 0.667670 0.699239
vt 0.660603 0.687284
vt 0.646364 0.649486
vt 0.653861 0.614196
vt 0.643704 0.571615
vt 0.657825 0.527435
vt 0.646124 0.515233
vt 0.633045 0.566738
vt 0.375000 0.750000
vt 0.625000 0.750000
vt 0.625000 1.000000
vt 0.375000 1.000000
vt 0.375000 0.000000
vt 0.625000 0.000000
vt 0.625000 0.250000
vt 0.375000 0.250000
vt 0.125000 0.500000
vt 0.375000 0.500000
vt 0.125000 0.750000
vt 0.866998 0.738964
vt 0.832712 0.732676
vt 0.821631 0.709381
vt 0.819444 0.687879
vt 0.823281 0.656484
vt 0.848584 0.591171
vt 0.843380 0.546557
vt 0.839119 0.539143
vt 0.801116 0.537973
vt 0.780274 0.550024
vt 0.776839 0.559951
vt 0.781383 0.587865
vt 0.792543 0.621250
vt 0.794729 0.644967
vt 0.788848 0.661240
vt 0.778822 0.681339
vt 0.768848 0.696885
vt 0.760368 0.696253
vt 0.751833 0.690717
vt 0.737287 0.669141
vt 0.732574 0.643439
vt 0.734140 0.613421
vt 0.741204 0.591025
vt 0.735125 0.560618
vt 0.731036 0.547210
vt 0.719083 0.534110
vt 0.687974 0.535266
vt 0.685071 0.547752
vt 0.687983 0.570994
vt 0.701098 0.596505
vt 0.709037 0.633342
vt 0.713062 0.659776
vt 0.714045 0.687676
vt 0.705199 0.700487
vt 0.690890 0.716892
vt 0.678960 0.723233
vt 0.660720 0.721776
vt 0.646736 0.697862
vt 0.636018 0.640566
vt 0.642235 0.616654
s 0
usemtl Material
f 1/1/1 5/2/1 7/3/1 10/4/1 11/5/1 12/6/1 13/7/1 14/8/1 15/9/1 16/10/1 17/11/1 18/12/1 19/13/1 20/14/1 21/15/1 22/16/1 23/17/1 24/18/1 25/19/1 26/20/1 27/21/1 28/22/1 29/23/1 30/24/1 31/25/1 32/26/1 33/27/1 34/28/1 35/29/1 36/30/1 37/31/1 38/32/1 39/33/1 40/34/1 41/35/1 42/36/1 43/37/1 44/38/1 45/39/1 46/40/1 47/41/1 48/42/1 49/43/1 50/44/1 51/45/1 52/46/1 53/47/1 54/48/1 55/49/1 56/50/1 57/51/1 58/52/1 59/53/1 60/54/1 61/55/1 62/56/1
f 4/57/2 3/58/2 7/59/2 8/60/2
f 8/61/3 7/62/3 5/63/3 6/64/3
f 6/65/4 2/66/4 4/57/4 8/67/4
f 2/66/5 1/1/5 3/58/5 4/57/5
f 6/64/6 5/63/6 1/1/6 2/66/6
f 155/56/1 154/55/1 153/54/1 152/53/1 151/52/1 150/51/1 149/50/1 148/49/1 147/48/1 146/47/1 145/46/1 144/45/1 143/44/1 142/43/1 141/42/1 140/41/1 139/40/1 138/39/1 137/38/1 136/37/1 135/36/1 134/35/1 133/34/1 132/33/1 131/32/1 130/31/1 129/30/1 128/29/1 127/28/1 126/27/1 125/26/1 124/25/1 123/24/1 122/23/1 121/22/1 120/21/1 119/20/1 118/19/1 117/18/1 116/17/1 115/16/1 114/15/1 113/14/1 112/13/1 111/12/1 110/11/1 109/10/1 108/9/1 107/8/1 106/7/1 105/6/1 104/5/1 103/4/1 102/68/1 194/69/1 193/70/1 192/71/1 191/72/1 190/73/1 189/74/1 188/75/1 187/76/1 186/77/1 185/78/1 184/79/1 183/80/1 182/81/1 181/82/1 180/83/1 179/84/1 178/85/1 177/86/1 176/87/1 175/88/1 174/89/1 173/90/1 172/91/1 171/92/1 170/93/1 169/94/1 168/95/1 167/96/1 166/97/1 165/98/1 164/99/1 163/100/1 162/101/1 161/102/1 160/103/1 159/104/1 158/105/1 157/106/1 156/107/1
f 62/56/7 61/55/7 154/55/7 155/56/7
f 63/107/1 64/106/1 65/105/1 66/104/1 67/103/1 68/102/1 69/101/1 70/100/1 71/99/1 72/98/1 73/97/1 74/96/1 75/95/1 76/94/1 77/93/1 78/92/1 79/91/1 80/90/1 81/89/1 82/88/1 83/87/1 84/86/1 85/85/1 86/84/1 87/83/1 88/82/1 89/81/1 90/80/1 91/79/1 92/78/1 93/77/1 94/76/1 95/75/1 96/74/1 97/73/1 98/72/1 99/71/1 100/70/1 101/69/1 9/68/1 10/4/1 7/3/1 3/58/1 1/1/1 62/56/1
f 36/30/8 35/29/8 128/29/8 129/30/8
f 10/4/5 9/68/5 102/68/5 103/4/5
f 89/81/9 88/82/9 181/82/9 182/81/9
f 63/107/10 62/56/10 155/56/10 156/107/10
f 37/31/11 36/30/11 129/30/11 130/31/11
f 11/5/12 10/4/12 103/4/12 104/5/12
f 90/80/13 89/81/13 182/81/13 183/80/13
f 64/106/14 63/107/14 156/107/14 157/106/14
f 38/32/15 37/31/15 130/31/15 131/32/15
f 12/6/16 11/5/16 104/5/16 105/6/16
f 91/79/17 90/80/17 183/80/17 184/79/17
f 65/105/18 64/106/18 157/106/18 158/105/18
f 39/33/19 38/32/19 131/32/19 132/33/19
f 13/7/20 12/6/20 105/6/20 106/7/20
f 92/78/21 91/79/21 184/79/21 185/78/21
f 66/104/22 65/105/22 158/105/22 159/104/22
f 40/34/23 39/33/23 132/33/23 133/34/23
f 14/8/24 13/7/24 106/7/24 107/8/24
f 93/77/25 92/78/25 185/78/25 186/77/25
f 67/103/26 66/104/26 159/104/26 160/103/26
f 41/35/27 40/34/27 133/34/27 134/35/27
f 15/9/28 14/8/28 107/8/28 108/9/28
f 94/76/29 93/77/29 186/77/29 187/76/29
f 68/102/30 67/103/30 160/103/30 161/102/30
f 42/36/31 41/35/31 134/35/31 135/36/31
f 16/10/32 15/9/32 108/9/32 109/10/32
f 95/75/33 94/76/33 187/76/33 188/75/33
f 69/101/34 68/102/34 161/102/34 162/101/34
f 43/37/35 42/36/35 135/36/35 136/37/35
f 17/11/36 16/10/36 109/10/36 110/11/36
f 96/74/37 95/75/37 188/75/37 189/74/37
f 70/100/38 69/101/38 162/101/38 163/100/38
f 44/38/39 43/37/39 136/37/39 137/38/39
f 18/12/40 17/11/40 110/11/40 111/12/40
f 97/73/41 96/74/41 189/74/41 190/73/41
f 71/99/42 70/100/42 163/100/42 164/99/42
f 45/39/43 44/38/43 137/38/43 138/39/43
f 19/13/44 18/12/44 111/12/44 112/13/44
f 98/72/45 97/73/45 190/73/45 191/72/45
f 72/98/46 71/99/46 164/99/46 165/98/46
f 46/40/47 45/39/47 138/39/47 139/40/47
f 20/14/48 19/13/48 112/13/48 113/14/48
f 99/71/49 98/72/49 191/72/49 192/71/49
f 73/97/50 72/98/50 165/98/50 166/97/50
f 47/41/51 46/40/51 139/40/51 140/41/51
f 21/15/52 20/14/52 113/14/52 114/15/52
f 100/70/53 99/71/53 192/71/53 193/70/53
f 74/96/54 73/97/54 166/97/54 167/96/54
f 48/42/55 47/41/55 140/41/55 141/42/55
f 22/16/56 21/15/56 114/15/56 115/16/56
f 101/69/57 100/70/57 193/70/57 194/69/57
f 75/95/58 74/96/58 167/96/58 168/95/58
f 49/43/59 48/42/59 141/42/59 142/43/59
f 23/17/60 22/16/60 115/16/60 116/17/60
f 9/68/61 101/69/61 194/69/61 102/68/61
f 76/94/62 75/95/62 168/95/62 169/94/62
f 50/44/63 49/43/63 142/43/63 143/44/63
f 24/18/64 23/17/64 116/17/64 117/18/64
f 77/93/65 76/94/65 169/94/65 170/93/65
f 51/45/66 50/44/66 143/44/66 144/45/66
f 25/19/67 24/18/67 117/18/67 118/19/67
f 78/92/68 77/93/68 170/93/68 171/92/68
f 52/46/69 51/45/69 144/45/69 145/46/69
f 26/20/70 25/19/70 118/19/70 119/20/70
f 79/91/71 78/92/71 171/92/71 172/91/71
f 53/47/72 52/46/72 145/46/72 146/47/72
f 27/21/73 26/20/73 119/20/73 120/21/73
f 80/90/74 79/91/74 172/91/74 173/90/74
f 54/48/75 53/47/75 146/47/75 147/48/75
f 28/22/76 27/21/76 120/21/76 121/22/76
f 81/89/77 80/90/77 173/90/77 174/89/77
f 55/49/78 54/48/78 147/48/78 148/49/78
f 29/23/79 28/22/79 121/22/79 122/23/79
f 82/88/80 81/89/80 174/89/80 175/88/80
f 56/50/81 55/49/81 148/49/81 149/50/81
f 30/24/82 29/23/82 122/23/82 123/24/82
f 83/87/83 82/88/83 175/88/83 176/87/83
f 57/51/84 56/50/84 149/50/84 150/51/84
f 31/25/85 30/24/85 123/24/85 124/25/85
f 84/86/86 83/87/86 176/87/86 177/86/86
f 58/52/87 57/51/87 150/51/87 151/52/87
f 32/26/88 31/25/88 124/25/88 125/26/88
f 85/85/89 84/86/89 177/86/89 178/85/89
f 59/53/90 58/52/90 151/52/90 152/53/90
f 33/27/91 32/26/91 125/26/91 126/27/91
f 86/84/92 85/85/92 178/85/92 179/84/92
f 60/54/93 59/53/93 152/53/93 153/54/93
f 34/28/94 33/27/94 126/27/94 127/28/94
f 87/83/95 86/84/95 179/84/95 180/83/95
f 61/55/96 60/54/96 153/54/96 154/55/96
f 35/29/97 34/28/97 127/28/97 128/29/97
f 88/82/98 87/83/98 180/83/98 181/82/98
