# Blender 4.1.0
# www.blender.org
mtllib track2.mtl
o Cube
v -2.064582 -2.567524 3.857307
v -2.064582 -2.056764 4.152195
v -2.064582 2.056764 -4.152195
v -2.064582 2.567524 -3.857307
v 2.064582 -2.567524 3.857307
v 2.064582 -2.056764 4.152195
v 2.064582 2.056764 -4.152195
v 2.064582 2.567524 -3.857307
v 1.766320 2.458398 -3.668294
v 1.239164 2.457540 -3.666809
v 1.246599 2.007204 -2.886805
v 0.917670 1.912823 -2.723331
v 0.660747 1.896334 -2.694772
v 0.247567 1.931078 -2.754950
v 0.029639 2.049548 -2.960145
v -0.166938 2.213420 -3.243980
v -0.528699 2.237319 -3.285375
v -0.973289 2.230534 -3.273623
v -1.160710 2.184026 -3.193070
v -1.349776 2.116942 -3.076877
v -1.777344 1.923730 -2.742222
v -1.890816 1.644074 -2.257844
v -1.865857 1.509944 -2.025524
v -1.837643 1.188746 -1.469193
v -1.783053 0.984994 -1.116284
v -1.599853 0.797971 -0.792352
v -1.272546 0.766918 -0.738565
v -1.129870 0.761978 -0.730010
v -0.747644 0.903903 -0.975831
v -0.590588 1.149872 -1.401861
v -0.454076 1.243723 -1.564416
v -0.154324 1.286594 -1.638672
v 0.385202 1.230279 -1.541131
v 0.712134 1.071768 -1.266581
v 0.854983 0.931342 -1.023357
v 0.793301 0.573307 -0.403222
v 0.642281 0.339814 0.001201
v 0.498274 0.133037 0.359348
v 0.233579 -0.052071 0.679964
v 0.000797 -0.157456 0.862497
v -0.374750 -0.339501 1.177808
v -0.492909 -0.394371 1.272845
v -1.161691 -0.770557 1.924418
v -1.770827 -1.040268 2.391572
v -1.863634 -1.237921 2.733917
v -1.706434 -1.568469 3.306442
v -1.172266 -1.728724 3.584014
v -0.843976 -1.759496 3.637311
v -0.408290 -1.647242 3.442882
v -0.223111 -1.464702 3.126714
v -0.163801 -1.283548 2.812946
v -0.141157 -1.109599 2.511657
v 0.056792 -1.001426 2.324295
v 0.465361 -0.932317 2.204596
v 0.623029 -0.939546 2.217116
v 0.877162 -1.038495 2.388501
v 1.073686 -1.131088 2.548878
v 1.225707 -1.323466 2.882085
v 1.251443 -1.432371 3.070715
v 1.236446 -1.562957 3.296896
v 1.205220 -1.700819 3.535680
v 1.769522 -1.711539 3.554247
v 1.466943 -1.114968 2.520957
v 1.147481 -0.923959 2.190120
v 0.692217 -0.808623 1.990352
v 0.307594 -0.811255 1.994910
v -0.062012 -0.900762 2.149941
v -0.374858 -1.012875 2.344127
v -0.517799 -1.238275 2.734530
v -0.583383 -1.428447 3.063917
v -0.711709 -1.576221 3.319870
v -0.979320 -1.592803 3.348592
v -1.261579 -1.516354 3.216177
v -1.555865 -1.360356 2.945980
v -1.568695 -1.236271 2.731059
v -1.330510 -1.079666 2.459811
v -0.278115 -0.552691 1.547063
v 0.241923 -0.375027 1.239341
v 0.680881 -0.160592 0.867928
v 1.070611 0.291831 0.084310
v 1.221544 0.877826 -0.930665
v 1.126846 1.134946 -1.376009
v 0.691638 1.336405 -1.724946
v -0.106388 1.442828 -1.909276
v -0.551471 1.420205 -1.870091
v -0.804793 1.262853 -1.597550
v -1.013907 1.013537 -1.165723
v -1.242326 0.949529 -1.054858
v -1.459230 0.973048 -1.095594
v -1.598220 1.639391 -2.249733
v -1.466084 1.850123 -2.614732
v -0.894704 2.046041 -2.954072
v -0.323177 2.017964 -2.905441
v 0.126513 1.771702 -2.478903
v 0.579143 1.705966 -2.365045
v 1.289095 1.784541 -2.501141
v 1.715565 1.882584 -2.670956
v -2.064582 2.298405 -4.012683
v 2.064582 2.298405 -4.012683
v 1.766320 2.189278 -3.823670
v 1.239164 2.188421 -3.822185
v 1.246599 1.738085 -3.042181
v 0.917670 1.643704 -2.878707
v 0.660747 1.627215 -2.850147
v 0.247567 1.661959 -2.910326
v 0.029639 1.780428 -3.115521
v -0.166938 1.944301 -3.399356
v -0.528699 1.968200 -3.440751
v -0.973289 1.961415 -3.428999
v -1.160710 1.914907 -3.348446
v -1.349776 1.847823 -3.232253
v -1.777344 1.654610 -2.897598
v -1.890816 1.374954 -2.413220
v -1.865857 1.240824 -2.180900
v -1.837643 0.919627 -1.624569
v -1.783053 0.715874 -1.271660
v -1.599853 0.528852 -0.947728
v -1.272546 0.497799 -0.893941
v -1.129870 0.492859 -0.885386
v -0.747644 0.634784 -1.131207
v -0.590588 0.880753 -1.557237
v -0.454076 0.974604 -1.719792
v -0.154324 1.017475 -1.794048
v 0.385202 0.961160 -1.696507
v 0.712134 0.802649 -1.421957
v 0.854983 0.662223 -1.178733
v 0.793301 0.304188 -0.558598
v 0.642281 0.070695 -0.154175
v 0.498274 -0.136082 0.203972
v 0.233579 -0.321190 0.524588
v 0.000797 -0.426575 0.707121
v -0.374750 -0.608620 1.022432
v -0.492909 -0.663490 1.117469
v -1.161691 -1.039676 1.769042
v -1.770827 -1.309387 2.236197
v -1.863634 -1.507040 2.578541
v -1.706434 -1.837588 3.151066
v -1.172266 -1.997844 3.428638
v -0.843976 -2.028615 3.481935
v -0.408290 -1.916361 3.287506
v -0.223111 -1.733822 2.971338
v -0.163801 -1.552667 2.657570
v -0.141157 -1.378719 2.356282
v 0.056792 -1.270545 2.168919
v 0.465361 -1.201437 2.049220
v 0.623029 -1.208665 2.061740
v 0.877162 -1.307614 2.233125
v 1.073686 -1.400208 2.393502
v 1.225707 -1.592585 2.726709
v 1.251443 -1.701490 2.915339
v 1.236446 -1.832076 3.141521
v 1.205220 -1.969938 3.380304
v 1.769522 -1.980658 3.398871
v 1.466943 -1.384087 2.365581
v 1.147481 -1.193079 2.034744
v 0.692217 -1.077742 1.834975
v 0.307594 -1.080374 1.839534
v -0.062012 -1.169882 1.994565
v -0.374858 -1.281995 2.188751
v -0.517799 -1.507394 2.579154
v -0.583383 -1.697566 2.908541
v -0.711709 -1.845340 3.164494
v -0.979320 -1.861923 3.193216
v -1.261579 -1.785473 3.060802
v -1.555865 -1.629475 2.790604
v -1.568695 -1.505390 2.575683
v -1.330510 -1.348785 2.304435
v -0.278115 -0.821810 1.391687
v 0.241923 -0.644146 1.083965
v 0.680881 -0.429711 0.712552
v 1.070611 0.022711 -0.071066
v 1.221544 0.608707 -1.086041
v 1.126846 0.865827 -1.531385
v 0.691638 1.067286 -1.880322
v -0.106388 1.173708 -2.064652
v -0.551471 1.151085 -2.025467
v -0.804793 0.993734 -1.752926
v -1.013907 0.744418 -1.321099
v -1.242326 0.680410 -1.210234
v -1.459230 0.703929 -1.250970
v -1.598220 1.370271 -2.405109
v -1.466084 1.581004 -2.770108
v -0.894704 1.776922 -3.109448
v -0.323177 1.748845 -3.060817
v 0.126513 1.502583 -2.634279
v 0.579143 1.436847 -2.520421
v 1.289095 1.515422 -2.656517
v 1.715565 1.613465 -2.826332
vn -1.0000 -0.0000 -0.0000
vn -0.0000 0.5000 -0.8660
vn 1.0000 -0.0000 -0.0000
vn -0.0000 -0.5000 0.8660
vn -0.0000 -0.8660 -0.5000
vn -0.0000 0.8660 0.5000
vn -0.5656 0.4124 -0.7142
vn 0.0137 -0.5000 0.8659
vn 0.6712 -0.3706 0.6420
vn -0.1659 -0.4931 0.8540
vn 0.0978 0.4976 -0.8619
vn 0.4359 -0.4500 0.7794
vn 0.6961 -0.3590 0.6218
vn -0.7360 -0.3385 0.5863
vn 0.7385 0.3371 -0.5839
vn 0.5826 -0.4064 0.7039
vn 0.6805 -0.3664 0.6346
vn -0.8576 -0.2572 0.4455
vn 0.2789 0.4802 -0.8317
vn 0.9532 -0.1511 0.2618
vn 0.7474 -0.3322 0.5754
vn -0.1310 -0.4957 0.8586
vn -0.2161 0.4882 -0.8456
vn 0.9855 -0.0850 0.1472
vn 0.6630 -0.3743 0.6483
vn 0.0305 -0.4998 0.8656
vn -0.4177 0.4543 -0.7868
vn 0.9173 -0.1991 0.3449
vn 0.9735 -0.1143 0.1979
vn 0.4446 -0.4479 0.7757
vn -0.9990 0.0220 -0.0381
vn 0.1230 -0.4962 0.8595
vn 0.9729 0.1157 -0.2003
vn 0.5787 -0.4078 0.7063
vn 0.9956 0.0468 -0.0811
vn -0.4763 -0.4396 0.7615
vn 0.5145 0.4287 -0.7426
vn 0.6705 -0.3710 0.6425
vn -0.7275 -0.3431 0.5942
vn 0.1843 0.4914 -0.8512
vn 0.9800 -0.0994 0.1722
vn -0.9987 -0.0258 0.0447
vn -0.4581 0.4445 -0.7698
vn 0.9957 0.0463 -0.0802
vn -0.7960 0.3027 -0.5242
vn -0.8918 0.2262 -0.3918
vn 0.9990 0.0219 -0.0380
vn -0.7076 0.3533 -0.6119
vn -0.9869 0.0808 -0.1399
vn 0.9911 0.0664 -0.1150
vn -0.5642 0.4128 -0.7150
vn -0.9979 0.0325 -0.0562
vn 0.8981 0.2199 -0.3809
vn -0.6988 0.3576 -0.6194
vn -0.7378 0.3375 -0.5846
vn 0.1864 0.4912 -0.8508
vn -0.9184 0.1978 -0.3426
vn -0.3205 0.4736 -0.8204
vn 0.0691 0.4988 -0.8640
vn -0.9918 0.0639 -0.1106
vn 0.0913 0.4979 -0.8624
vn -0.5962 0.4014 -0.6953
vn -0.9835 -0.0906 0.1568
vn 0.6144 0.3945 -0.6833
vn -0.9526 0.1521 -0.2634
vn -0.6794 -0.3669 0.6355
vn 0.6858 0.3639 -0.6303
vn -0.8087 0.2941 -0.5094
vn -0.2577 -0.4831 0.8368
vn 0.9300 0.1837 -0.3182
vn -0.2750 0.4807 -0.8326
vn 0.1011 -0.4974 0.8616
vn 0.9931 0.0587 -0.1016
vn 0.2044 0.4894 -0.8478
vn 0.7790 -0.3135 0.5430
vn 0.9984 -0.0287 0.0496
vn 0.6961 0.3590 -0.6217
vn 0.9222 -0.1934 0.3349
vn 0.9936 -0.0563 0.0975
vn 0.8913 0.2267 -0.3926
vn 0.4889 -0.4362 0.7555
vn 0.0380 0.4996 -0.8654
vn 0.9963 -0.0429 0.0743
vn 0.0033 -0.5000 0.8660
vn -0.2119 -0.4886 0.8464
vn -0.9693 -0.1229 0.2129
vn 0.9515 -0.1539 0.2665
vn 1.0000 0.0041 -0.0071
vn -0.9946 -0.0519 0.0898
vn -0.7671 -0.3208 0.5556
vn 0.9444 -0.1644 0.2848
vn 0.4977 -0.4337 0.7511
vn -0.9542 0.1496 -0.2591
vn -0.4520 -0.4460 0.7725
vn 0.8135 -0.2908 0.5037
vn 0.1273 -0.4959 0.8590
vt 0.952656 0.639999
vt 0.907728 0.639999
vt 0.907729 -0.000000
vt 0.952656 -0.000000
vt 0.952656 0.954545
vt 0.907729 0.954545
vt 0.907729 0.639999
vt 0.952656 0.639999
vt 0.997583 0.516944
vt 0.952656 0.516944
vt 0.952656 -0.000000
vt 0.997583 0.000000
vt 0.674020 0.856644
vt 0.629092 0.856644
vt 0.629092 0.642534
vt 0.674020 0.642534
vt 0.314546 0.704526
vt 0.000000 0.704526
vt 0.000000 0.000000
vt 0.314546 0.000000
vt 0.629092 0.704526
vt 0.314546 0.704526
vt 0.327783 0.563835
vt 0.336427 0.606442
vt 0.368998 0.635878
vt 0.383400 0.646099
vt 0.397677 0.653185
vt 0.431545 0.654218
vt 0.459102 0.650577
vt 0.474077 0.625611
vt 0.490678 0.607561
vt 0.522153 0.602268
vt 0.541724 0.604780
vt 0.566781 0.619160
vt 0.566215 0.687770
vt 0.606372 0.687900
vt 0.602505 0.600173
vt 0.570018 0.585236
vt 0.515936 0.573265
vt 0.481457 0.583280
vt 0.447201 0.620799
vt 0.403664 0.625076
vt 0.360138 0.595228
vt 0.350072 0.563122
vt 0.360660 0.461602
vt 0.377183 0.458019
vt 0.394583 0.467771
vt 0.410513 0.505755
vt 0.429810 0.529728
vt 0.463715 0.533175
vt 0.524506 0.516961
vt 0.557659 0.486268
vt 0.564872 0.447095
vt 0.553375 0.357816
vt 0.523687 0.288888
vt 0.490248 0.256218
vt 0.450633 0.229151
vt 0.370465 0.148864
vt 0.352321 0.125005
vt 0.353299 0.106100
vt 0.375716 0.082333
vt 0.397218 0.070686
vt 0.417604 0.073212
vt 0.427379 0.095726
vt 0.432375 0.124700
vt 0.443264 0.159040
vt 0.467095 0.176121
vt 0.495251 0.189758
vt 0.524550 0.190159
vt 0.559231 0.172587
vt 0.583566 0.143486
vt 0.606616 0.052596
vt 0.629092 0.000000
vt 0.630986 0.498140
vt 0.633116 0.449204
vt 0.637263 0.418160
vt 0.651207 0.389661
vt 0.676139 0.384920
vt 0.687007 0.384164
vt 0.716132 0.405775
vt 0.728111 0.443245
vt 0.738515 0.457539
vt 0.761352 0.464062
vt 0.802448 0.455466
vt 0.827343 0.431307
vt 0.838217 0.409909
vt 0.833497 0.355363
vt 0.821979 0.319793
vt 0.810997 0.288295
vt 0.790823 0.260101
vt 0.773084 0.244052
vt 0.744465 0.216327
vt 0.735461 0.207971
vt 0.684493 0.150678
vt 0.638076 0.109604
vt 0.630994 0.079494
vt 0.642950 0.029129
vt 0.683632 0.004698
vt 0.708638 -0.000000
vt 0.741834 0.017089
vt 0.755951 0.044895
vt 0.760479 0.072492
vt 0.762214 0.098993
vt 0.777300 0.115468
vt 0.808427 0.125985
vt 0.820438 0.124879
vt 0.839791 0.109797
vt 0.854756 0.095684
vt 0.866325 0.066370
vt 0.868279 0.049777
vt 0.867129 0.029882
vt 0.864743 0.008880
vt 0.907728 0.007230
vt 0.884714 0.098128
vt 0.860390 0.127239
vt 0.825716 0.144824
vt 0.796416 0.144434
vt 0.768256 0.130808
vt 0.744418 0.113736
vt 0.733516 0.079400
vt 0.728509 0.050429
vt 0.718724 0.027919
vt 0.698338 0.025400
vt 0.676841 0.037056
vt 0.654432 0.060831
vt 0.653462 0.079736
vt 0.671615 0.103589
vt 0.751814 0.183844
vt 0.791439 0.210897
vt 0.824890 0.243554
vt 0.854605 0.312471
vt 0.866137 0.401745
vt 0.858938 0.440920
vt 0.825797 0.471626
vt 0.765012 0.487863
vt 0.731106 0.484430
vt 0.711800 0.460464
vt 0.695855 0.422486
vt 0.678452 0.412741
vt 0.661930 0.416330
vt 0.651381 0.517854
vt 0.661459 0.549956
vt 0.704996 0.579788
vt 0.748532 0.575494
vt 0.782773 0.537962
vt 0.817249 0.527933
vt 0.871336 0.539884
vt 0.903829 0.554808
vt 0.907728 0.642534
vt 0.867571 0.642419
vt 0.868111 0.573808
vt 0.843049 0.559439
vt 0.823477 0.556934
vt 0.792004 0.562240
vt 0.775410 0.580295
vt 0.760445 0.605267
vt 0.732889 0.608919
vt 0.699021 0.607898
vt 0.684741 0.600818
vt 0.670335 0.590603
vt 0.637753 0.561179
vt 0.629092 0.518576
vt 0.563629 0.054230
vt 0.566008 0.075233
vt 0.567150 0.095128
vt 0.565190 0.111721
vt 0.553609 0.141030
vt 0.538639 0.155137
vt 0.519280 0.170212
vt 0.507269 0.171313
vt 0.476146 0.160784
vt 0.461066 0.144304
vt 0.459341 0.117802
vt 0.454823 0.090203
vt 0.440717 0.062392
vt 0.407528 0.045290
vt 0.382520 0.049978
vt 0.341829 0.074393
vt 0.329854 0.124754
vt 0.336924 0.154867
vt 0.383326 0.195958
vt 0.434271 0.253271
vt 0.443272 0.261631
vt 0.471880 0.289366
vt 0.489613 0.305422
vt 0.509776 0.333624
vt 0.520746 0.365127
vt 0.532250 0.400700
vt 0.536949 0.455248
vt 0.526067 0.476643
vt 0.501163 0.500792
vt 0.460063 0.509372
vt 0.437229 0.502841
vt 0.426830 0.488542
vt 0.414866 0.451068
vt 0.385750 0.429445
vt 0.374881 0.430198
vt 0.349948 0.434929
vt 0.335992 0.463422
vt 0.331834 0.494465
vt 0.329684 0.543400
vt 0.314546 -0.000000
vt 0.745036 0.687846
vt 0.745036 0.642534
vt 0.768708 0.642534
vt 0.768708 0.687846
vt 0.721364 0.816709
vt 0.721364 0.796508
vt 0.745036 0.796508
vt 0.745036 0.816709
vt 0.952656 0.786868
vt 0.952656 0.763039
vt 0.976328 0.763039
vt 0.976328 0.786868
vt 0.071016 0.804260
vt 0.071016 0.778957
vt 0.094688 0.778957
vt 0.094688 0.804260
vt 0.697692 0.841339
vt 0.697692 0.797808
vt 0.721364 0.797808
vt 0.721364 0.841339
vt 0.721364 0.767373
vt 0.745036 0.767373
vt 0.952656 0.723252
vt 0.976328 0.723252
vt 0.071016 0.754435
vt 0.094688 0.754435
vt 0.697692 0.763608
vt 0.721364 0.763608
vt 0.721364 0.738648
vt 0.745036 0.738648
vt 0.952656 0.711003
vt 0.976328 0.711003
vt 0.071016 0.725952
vt 0.094688 0.725952
vt 0.697692 0.729143
vt 0.721364 0.729143
vt 0.721364 0.706053
vt 0.745036 0.706053
vt 0.952656 0.634336
vt 0.976328 0.634336
vt 0.071016 0.704526
vt 0.094688 0.704526
vt 0.697692 0.675043
vt 0.721364 0.675043
vt 0.721364 0.681400
vt 0.745036 0.681400
vt 0.952656 0.572658
vt 0.976328 0.572658
vt 0.674020 0.847451
vt 0.674020 0.823682
vt 0.697692 0.823682
vt 0.697692 0.847451
vt 0.697692 0.642534
vt 0.721364 0.642534
vt 0.721364 0.658238
vt 0.745036 0.658238
vt 0.952656 0.545760
vt 0.976328 0.545760
vt 0.674020 0.808783
vt 0.697692 0.808783
vt 0.165705 0.785835
vt 0.165705 0.704526
vt 0.189377 0.704526
vt 0.189377 0.785835
vt 0.721364 0.642534
vt 0.745036 0.642534
vt 0.952656 0.516944
vt 0.976328 0.516944
vt 0.674020 0.791498
vt 0.697692 0.791498
vt 0.674020 0.804873
vt 0.674020 0.710635
vt 0.697692 0.710635
vt 0.697692 0.804873
vt 0.236721 0.760365
vt 0.236721 0.737197
vt 0.260393 0.737197
vt 0.260393 0.760365
vt 0.118360 0.803397
vt 0.118360 0.762742
vt 0.142032 0.762742
vt 0.142032 0.803397
vt 0.674020 0.747770
vt 0.697692 0.747770
vt 0.236721 0.704526
vt 0.260393 0.704526
vt 0.118360 0.737741
vt 0.142032 0.737741
vt 0.976328 0.915162
vt 0.976328 0.898397
vt 1.000000 0.898397
vt 1.000000 0.915162
vt 0.118360 0.704526
vt 0.142032 0.704526
vt 0.674020 0.696932
vt 0.697692 0.696932
vt 0.976328 0.869138
vt 1.000000 0.869138
vt 0.047344 0.808719
vt 0.047344 0.777558
vt 0.071016 0.777558
vt 0.071016 0.808719
vt 0.674020 0.662486
vt 0.697692 0.662486
vt 0.976328 0.762688
vt 1.000000 0.762688
vt 0.047344 0.750597
vt 0.071016 0.750597
vt 0.674020 0.642534
vt 0.697692 0.642534
vt 0.976328 0.721537
vt 1.000000 0.721537
vt 0.047344 0.725802
vt 0.071016 0.725802
vt 0.260393 0.754233
vt 0.260393 0.740320
vt 0.284065 0.740320
vt 0.284065 0.754233
vt 0.976328 0.677880
vt 1.000000 0.677880
vt 0.047344 0.704526
vt 0.071016 0.704526
vt 0.260393 0.715394
vt 0.284065 0.715394
vt 0.976328 0.602852
vt 1.000000 0.602852
vt 0.189377 0.781961
vt 0.189377 0.750822
vt 0.213049 0.750822
vt 0.213049 0.781961
vt 0.284065 0.704526
vt 0.976328 0.516944
vt 1.000000 0.516944
vt 0.189377 0.738813
vt 0.213049 0.738813
vt 0.142032 0.792722
vt 0.142032 0.760907
vt 0.165705 0.760907
vt 0.165705 0.792722
vt 0.931401 0.639999
vt 0.931401 0.954545
vt 0.792380 0.774451
vt 0.792380 0.740843
vt 0.816052 0.740843
vt 0.816052 0.774451
vt 0.189377 0.719476
vt 0.213049 0.719476
vt 0.142032 0.721863
vt 0.165705 0.721863
vt 0.792380 0.695792
vt 0.816052 0.695792
vt 0.189377 0.704526
vt 0.213049 0.704526
vt 0.142032 0.704526
vt 0.165705 0.704526
vt 0.792380 0.642534
vt 0.816052 0.642534
vt 0.213049 0.761408
vt 0.213049 0.747770
vt 0.236721 0.747770
vt 0.236721 0.761408
vt 0.094688 0.804176
vt 0.094688 0.781332
vt 0.118360 0.781332
vt 0.118360 0.804176
vt 0.023672 0.818463
vt 0.023672 0.792898
vt 0.047344 0.792898
vt 0.047344 0.818463
vt 0.213049 0.736928
vt 0.236721 0.736928
vt 0.094688 0.740245
vt 0.118360 0.740245
vt 0.023672 0.762197
vt 0.047344 0.762197
vt 0.213049 0.721554
vt 0.236721 0.721554
vt 0.094688 0.715376
vt 0.118360 0.715376
vt 0.023672 0.723504
vt 0.047344 0.723504
vt 0.213049 0.704526
vt 0.236721 0.704526
vt 0.094688 0.704526
vt 0.118360 0.704526
vt 0.023672 0.704526
vt 0.047344 0.704526
vt 0.284065 0.747510
vt 0.284065 0.704526
vt 0.307737 0.704526
vt 0.307737 0.747510
vt 0.952656 0.928964
vt 0.952656 0.885748
vt 0.976328 0.885748
vt 0.976328 0.928964
vt -0.000000 0.824579
vt 0.000000 0.797199
vt 0.023672 0.797199
vt 0.023672 0.824579
vt 0.307737 0.704526
vt 0.321609 0.704526
vt 0.321609 0.728198
vt 0.307737 0.728198
vt 0.768708 0.799169
vt 0.768708 0.716897
vt 0.792380 0.716897
vt 0.792380 0.799169
vt 0.952656 0.851829
vt 0.976328 0.851829
vt 0.000000 0.747242
vt 0.023672 0.747242
vt 0.745036 0.809015
vt 0.745036 0.721220
vt 0.768708 0.721220
vt 0.768708 0.809015
vt 0.768708 0.679013
vt 0.792380 0.679013
vt 0.952656 0.821261
vt 0.976328 0.821261
vt 0.000000 0.719667
vt 0.023672 0.719667
vt 0.768708 0.642534
vt 0.792380 0.642534
vt 0.000000 0.704526
vt 0.023672 0.704526
s 0
f 1/1/1 2/2/1 4/3/1 3/4/1
f 3/5/2 4/6/2 8/7/2 7/8/2
f 7/9/3 8/10/3 6/11/3 5/12/3
f 5/13/4 6/14/4 2/15/4 1/16/4
f 3/17/5 7/18/5 5/19/5 1/20/5
f 8/21/6 4/22/6 22/23/6 21/24/6 20/25/6 19/26/6 18/27/6 17/28/6 16/29/6 15/30/6 14/31/6 13/32/6 12/33/6 11/34/6 10/35/6 9/36/6 97/37/6 96/38/6 95/39/6 94/40/6 93/41/6 92/42/6 91/43/6 90/44/6 89/45/6 88/46/6 87/47/6 86/48/6 85/49/6 84/50/6 83/51/6 82/52/6 81/53/6 80/54/6 79/55/6 78/56/6 77/57/6 76/58/6 75/59/6 74/60/6 73/61/6 72/62/6 71/63/6 70/64/6 69/65/6 68/66/6 67/67/6 66/68/6 65/69/6 64/70/6 63/71/6 62/72/6 6/73/6
f 114/74/6 115/75/6 116/76/6 117/77/6 118/78/6 119/79/6 120/80/6 121/81/6 122/82/6 123/83/6 124/84/6 125/85/6 126/86/6 127/87/6 128/88/6 129/89/6 130/90/6 131/91/6 132/92/6 133/93/6 134/94/6 135/95/6 136/96/6 137/97/6 138/98/6 139/99/6 140/100/6 141/101/6 142/102/6 143/103/6 144/104/6 145/105/6 146/106/6 147/107/6 148/108/6 149/109/6 150/110/6 151/111/6 152/112/6 153/113/6 154/114/6 155/115/6 156/116/6 157/117/6 158/118/6 159/119/6 160/120/6 161/121/6 162/122/6 163/123/6 164/124/6 165/125/6 166/126/6 167/127/6 168/128/6 169/129/6 170/130/6 171/131/6 172/132/6 173/133/6 174/134/6 175/135/6 176/136/6 177/137/6 178/138/6 179/139/6 180/140/6 181/141/6 182/142/6 183/143/6 184/144/6 185/145/6 186/146/6 187/147/6 188/148/6 100/149/6 101/150/6 102/151/6 103/152/6 104/153/6 105/154/6 106/155/6 107/156/6 108/157/6 109/158/6 110/159/6 111/160/6 112/161/6 113/162/6
f 6/73/6 62/72/6 61/163/6 60/164/6 59/165/6 58/166/6 57/167/6 56/168/6 55/169/6 54/170/6 53/171/6 52/172/6 51/173/6 50/174/6 49/175/6 48/176/6 47/177/6 46/178/6 45/179/6 44/180/6 43/181/6 42/182/6 41/183/6 40/184/6 39/185/6 38/186/6 37/187/6 36/188/6 35/189/6 34/190/6 33/191/6 32/192/6 31/193/6 30/194/6 29/195/6 28/196/6 27/197/6 26/198/6 25/199/6 24/200/6 23/201/6 22/23/6 4/22/6 2/202/6
f 91/203/7 92/204/7 183/205/7 182/206/7
f 65/207/8 66/208/8 157/209/8 156/210/8
f 39/211/9 40/212/9 131/213/9 130/214/9
f 13/215/10 14/216/10 105/217/10 104/218/10
f 92/219/11 93/220/11 184/221/11 183/222/11
f 66/208/12 67/223/12 158/224/12 157/209/12
f 40/212/13 41/225/13 132/226/13 131/213/13
f 14/216/14 15/227/14 106/228/14 105/217/14
f 93/220/15 94/229/15 185/230/15 184/221/15
f 67/223/16 68/231/16 159/232/16 158/224/16
f 41/225/17 42/233/17 133/234/17 132/226/17
f 15/227/18 16/235/18 107/236/18 106/228/18
f 94/229/19 95/237/19 186/238/19 185/230/19
f 68/231/20 69/239/20 160/240/20 159/232/20
f 42/233/21 43/241/21 134/242/21 133/234/21
f 16/235/22 17/243/22 108/244/22 107/236/22
f 95/237/23 96/245/23 187/246/23 186/238/23
f 69/239/24 70/247/24 161/248/24 160/240/24
f 43/241/25 44/249/25 135/250/25 134/242/25
f 17/251/26 18/252/26 109/253/26 108/254/26
f 96/245/27 97/255/27 188/256/27 187/246/27
f 70/247/28 71/257/28 162/258/28 161/248/28
f 44/249/29 45/259/29 136/260/29 135/250/29
f 18/252/30 19/261/30 110/262/30 109/253/30
f 97/263/31 9/264/31 100/265/31 188/266/31
f 71/257/32 72/267/32 163/268/32 162/258/32
f 45/259/33 46/269/33 137/270/33 136/260/33
f 19/261/34 20/271/34 111/272/34 110/262/34
f 4/273/35 22/274/35 113/275/35 98/276/35
f 72/277/36 73/278/36 164/279/36 163/280/36
f 46/281/37 47/282/37 138/283/37 137/284/37
f 20/271/38 21/285/38 112/286/38 111/272/38
f 73/278/39 74/287/39 165/288/39 164/279/39
f 47/282/40 48/289/40 139/290/40 138/283/40
f 21/285/41 22/274/41 113/275/41 112/286/41
f 74/291/42 75/292/42 166/293/42 165/294/42
f 48/289/43 49/295/43 140/296/43 139/290/43
f 22/274/44 23/297/44 114/298/44 113/275/44
f 75/292/45 76/299/45 167/300/45 166/293/45
f 49/301/46 50/302/46 141/303/46 140/304/46
f 23/297/47 24/305/47 115/306/47 114/298/47
f 76/299/48 77/307/48 168/308/48 167/300/48
f 50/302/49 51/309/49 142/310/49 141/303/49
f 24/305/50 25/311/50 116/312/50 115/306/50
f 77/307/51 78/313/51 169/314/51 168/308/51
f 51/309/52 52/315/52 143/316/52 142/310/52
f 25/317/53 26/318/53 117/319/53 116/320/53
f 78/313/54 79/321/54 170/322/54 169/314/54
f 52/315/55 53/323/55 144/324/55 143/316/55
f 26/318/56 27/325/56 118/326/56 117/319/56
f 79/321/57 80/327/57 171/328/57 170/322/57
f 53/329/58 54/330/58 145/331/58 144/332/58
f 27/325/59 28/288/59 119/333/59 118/326/59
f 80/327/60 81/334/60 172/335/60 171/328/60
f 54/330/61 55/336/61 146/337/61 145/331/61
f 28/338/62 29/339/62 120/340/62 119/341/62
f 4/6/2 8/7/2 99/342/2 98/343/2
f 81/344/63 82/345/63 173/346/63 172/347/63
f 55/336/64 56/348/64 147/349/64 146/337/64
f 29/339/65 30/350/65 121/351/65 120/340/65
f 82/345/66 83/352/66 174/353/66 173/346/66
f 56/348/67 57/354/67 148/355/67 147/349/67
f 30/350/68 31/356/68 122/357/68 121/351/68
f 83/352/69 84/358/69 175/359/69 174/353/69
f 57/360/70 58/361/70 149/362/70 148/363/70
f 31/364/71 32/365/71 123/366/71 122/367/71
f 84/368/72 85/369/72 176/370/72 175/371/72
f 58/361/73 59/372/73 150/373/73 149/362/73
f 32/365/74 33/374/74 124/375/74 123/366/74
f 85/369/75 86/376/75 177/377/75 176/370/75
f 59/372/76 60/378/76 151/379/76 150/373/76
f 33/374/77 34/380/77 125/381/77 124/375/77
f 86/376/78 87/382/78 178/383/78 177/377/78
f 60/378/79 61/384/79 152/385/79 151/379/79
f 34/380/80 35/386/80 126/387/80 125/381/80
f 87/382/81 88/388/81 179/389/81 178/383/81
f 61/390/82 62/391/82 153/392/82 152/393/82
f 35/394/83 36/395/83 127/396/83 126/397/83
f 9/398/84 10/399/84 101/400/84 100/401/84
f 88/402/85 89/403/85 180/404/85 179/405/85
f 62/406/86 63/407/86 154/408/86 153/409/86
f 36/395/87 37/410/87 128/411/87 127/396/87
f 10/399/88 11/412/88 102/413/88 101/400/88
f 89/414/89 90/415/89 181/416/89 180/417/89
f 63/407/90 64/418/90 155/419/90 154/408/90
f 37/410/91 38/420/91 129/421/91 128/411/91
f 11/412/92 12/422/92 103/423/92 102/413/92
f 90/415/93 91/203/93 182/206/93 181/416/93
f 64/418/94 65/424/94 156/425/94 155/419/94
f 38/420/95 39/211/95 130/214/95 129/421/95
f 12/422/96 13/426/96 104/427/96 103/423/96
